# xmcd CD database file
#
# Track frame offsets:
#	150
#	16980
#	31007
#	44182
#	57560
#	72877
#	88207
#	102845
#	117802
#	135745
#	150577
#	162230
#
# Disc length: 2357 seconds
#
# Revision: 0
# Processed by: cddbd v1.5.1PL0 Copyright (c) Steve Scherf et al.
# Submitted via: CDex 1.51
#
DISCID=9e09330c
DTITLE=Helt Oncale - Back Home
DYEAR=1994
DGENRE=Country
TTITLE0=Magnolia
TTITLE1=The Legend Of The Lost Train
TTITLE2=Cajun Nights
TTITLE3=Colinda
TTITLE4=Talking My Time
TTITLE5=Since I Met You
TTITLE6=Louisiana Saterday Night
TTITLE7=Fae Do Do
TTITLE8=Outlaw Days
TTITLE9=Slow Water
TTITLE10=Covers Is A Kids Best Friend
TTITLE11=Hold In
EXTD=YEAR: 1994
EXTT0=
EXTT1=
EXTT2=
EXTT3=
EXTT4=
EXTT5=
EXTT6=
EXTT7=
EXTT8=
EXTT9=
EXTT10=
EXTT11=
PLAYORDER=
